<svg id="Layer_1" data-name="Layer 1" xmlns="http://www.w3.org/2000/svg" viewBox="0 0 102.94 105.56"><defs><style>.cls-1{fill:#57853c;}.cls-2{fill:#6ab045;}</style></defs><title>glogo</title><path class="cls-1" d="M19.15,17.76H122.09V123.32H19.15Zm98.38,101.13c0-.64-.13-1.21-.13-1.77l0-92.81c0-.4,0-.79.06-1.18.06-.94.31-1-.87-.93,0,0,0,0-.07,0l-91.91,0h-1v1q0,47,0,94.06c0,1.59,0,1.59,1.58,1.59l91.26,0Z" transform="translate(-19.15 -17.76)"/><path class="cls-2" d="M65.5,109.91c0-1.73,0-3.41,0-5.1a2.3,2.3,0,0,0-1.78-2.19c-2.21-.72-4.46-1.33-6.69-2-6.13-1.87-10.42-5.69-12.49-11.85a19.46,19.46,0,0,1-.9-6c0-3.09,0-6.18,0-9.26,0-.24,0-.47.07-.79a16.19,16.19,0,0,1,2,.33c4.32,1.22,8.68,2.32,12.94,3.74A17.4,17.4,0,0,1,70.87,90.49a22.64,22.64,0,0,1,.42,4.5c0,6.74,0,13.49,0,20.23v.49H26.76V25.26h87.58V115.7H73.47V115q0-16.75,0-33.5a28.14,28.14,0,0,1,1.17-9.12,16.72,16.72,0,0,1,10-10.41,66.31,66.31,0,0,1,6.82-2.24c3.15-.94,6.33-1.81,9.5-2.71.2-.06.41-.11.68-.17-.09,1.39-.16,2.72-.25,4-.17,2.51-.31,5-.53,7.53a26.18,26.18,0,0,1-1.33,6.72,15,15,0,0,1-9,9c-2.46,1-5.06,1.6-7.59,2.42a19.53,19.53,0,0,0-2.6,1,1.77,1.77,0,0,0-1,1.73q0,10.19-.07,20.36c0,.11,0,.21,0,.36h29.3V31H32.4v78.94ZM95,64.78A31.08,31.08,0,0,0,86,67.63a13.52,13.52,0,0,0-3.65,2.73,11.26,11.26,0,0,0-3,7.38c-.07,1.15,0,2.29,0,3.53,1.08-.17,2-.28,2.84-.46A18.42,18.42,0,0,0,92,76,11.13,11.13,0,0,0,95,64.78ZM65.46,96.71c0-1.15,0-2.24,0-3.32a11.15,11.15,0,0,0-5.37-9.45c-3.2-2.06-6.81-2.92-10.52-3.66a16.86,16.86,0,0,0,.18,5.63c.87,4.15,3.46,6.86,7.23,8.55A32.06,32.06,0,0,0,65.46,96.71Z" transform="translate(-19.15 -17.76)"/><path class="cls-2" d="M43.39,44.24c2.46.78,4.86,1.48,7.23,2.28,3.81,1.3,7.66,2.52,11.39,4,4.77,1.95,7.48,5.74,8.52,10.72a57.56,57.56,0,0,1,.81,10.58c0,1.59.1,3.19.14,4.78,0,.15,0,.3,0,.54l-1-.3c-5.26-1.72-10.53-3.41-15.77-5.18a15.06,15.06,0,0,1-7.28-4.92A15.78,15.78,0,0,1,44,57.91c-.26-3.73-.36-7.47-.53-11.2C43.47,45.91,43.43,45.11,43.39,44.24ZM65.46,68.92c0-1.1,0-2.08,0-3.06a11.43,11.43,0,0,0-6.35-10.42,25.31,25.31,0,0,0-7.67-2.51c-.61-.11-1.23-.19-1.9-.3,0,1.41-.06,2.72,0,4a11.05,11.05,0,0,0,2.08,5.84A12.15,12.15,0,0,0,56,66.15,29,29,0,0,0,65.46,68.92Z" transform="translate(-19.15 -17.76)"/></svg>